<svg width="22" height="22" viewBox="0 0 22 22" fill="none" xmlns="http://www.w3.org/2000/svg">
<mask id="path-1-inside-1_965_3568" fill="white">
<path fill-rule="evenodd" clip-rule="evenodd" d="M3.4801 0.600098H3.4001C3.0337 0.600098 2.7185 0.600098 2.4401 0.665698C2.00912 0.768681 1.61506 0.988972 1.30159 1.30216C0.988115 1.61535 0.76747 2.00921 0.664098 2.4401C0.600098 2.7185 0.600098 3.0321 0.600098 3.4001V7.4001C0.600098 7.7665 0.600098 8.0817 0.665698 8.3601C0.768681 8.79108 0.988972 9.18514 1.30216 9.49861C1.61535 9.81208 2.00921 10.0327 2.4401 10.1361C2.7185 10.2001 3.0321 10.2001 3.4001 10.2001H7.4001C7.7665 10.2001 8.0817 10.2001 8.3601 10.1345C8.79108 10.0315 9.18514 9.81122 9.49861 9.49803C9.81208 9.18485 10.0327 8.79099 10.1361 8.3601C10.2001 8.0817 10.2001 7.7681 10.2001 7.4001V3.4001C10.2001 3.0337 10.2001 2.7185 10.1345 2.4401C10.0315 2.00912 9.81122 1.61506 9.49804 1.30159C9.18485 0.988115 8.79099 0.76747 8.3601 0.664098C8.0817 0.600098 7.7681 0.600098 7.4001 0.600098H3.4801ZM2.8129 2.2225C2.8817 2.2065 2.9889 2.2001 3.4801 2.2001H7.3201C7.8129 2.2001 7.9185 2.2049 7.9873 2.2225C8.13103 2.25687 8.26242 2.33038 8.36692 2.43487C8.47142 2.53937 8.54493 2.67077 8.5793 2.8145C8.5953 2.8817 8.6001 2.9873 8.6001 3.4801V7.3201C8.6001 7.8129 8.5953 7.9185 8.5777 7.9873C8.54333 8.13103 8.46982 8.26242 8.36532 8.36692C8.26082 8.47142 8.12943 8.54493 7.9857 8.5793C7.9201 8.5937 7.8145 8.6001 7.3201 8.6001H3.4801C2.9873 8.6001 2.8817 8.5953 2.8129 8.5777C2.66917 8.54333 2.53777 8.46982 2.43327 8.36532C2.32878 8.26082 2.25527 8.12943 2.2209 7.9857C2.2065 7.9201 2.2001 7.8145 2.2001 7.3201V3.4801C2.2001 2.9873 2.2049 2.8817 2.2225 2.8129C2.25687 2.66917 2.33038 2.53777 2.43487 2.43327C2.53937 2.32878 2.67077 2.25527 2.8145 2.2209L2.8129 2.2225ZM14.6801 0.600098H14.6001C14.2337 0.600098 13.9185 0.600098 13.6401 0.665698C13.2091 0.768681 12.8151 0.988972 12.5016 1.30216C12.1881 1.61535 11.9675 2.00921 11.8641 2.4401C11.8001 2.7185 11.8001 3.0321 11.8001 3.4001V7.4001C11.8001 7.7665 11.8001 8.0817 11.8657 8.3601C11.9687 8.79108 12.189 9.18514 12.5022 9.49861C12.8154 9.81208 13.2092 10.0327 13.6401 10.1361C13.9185 10.2001 14.2321 10.2001 14.6001 10.2001H18.6001C18.9665 10.2001 19.2817 10.2001 19.5601 10.1345C19.9911 10.0315 20.3851 9.81122 20.6986 9.49803C21.0121 9.18485 21.2327 8.79099 21.3361 8.3601C21.4001 8.0817 21.4001 7.7681 21.4001 7.4001V3.4001C21.4001 3.0337 21.4001 2.7185 21.3345 2.4401C21.2315 2.00912 21.0112 1.61506 20.698 1.30159C20.3848 0.988115 19.991 0.76747 19.5601 0.664098C19.2817 0.600098 18.9681 0.600098 18.6001 0.600098H14.6801ZM14.0129 2.2225C14.0817 2.2065 14.1889 2.2001 14.6801 2.2001H18.5201C19.0129 2.2001 19.1185 2.2049 19.1873 2.2225C19.331 2.25687 19.4624 2.33038 19.5669 2.43487C19.6714 2.53937 19.7449 2.67077 19.7793 2.8145C19.7953 2.8817 19.8001 2.9873 19.8001 3.4801V7.3201C19.8001 7.8129 19.7937 7.9185 19.7777 7.9873C19.7433 8.13103 19.6698 8.26242 19.5653 8.36692C19.4608 8.47142 19.3294 8.54493 19.1857 8.5793C19.1185 8.5953 19.0129 8.6001 18.5201 8.6001H14.6801C14.1873 8.6001 14.0817 8.5953 14.0129 8.5777C13.8692 8.54333 13.7378 8.46982 13.6333 8.36532C13.5288 8.26082 13.4553 8.12943 13.4209 7.9857C13.4065 7.9201 13.4001 7.8145 13.4001 7.3201V3.4801C13.4001 2.9873 13.4049 2.8817 13.4225 2.8129C13.4569 2.66917 13.5304 2.53777 13.6349 2.43327C13.7394 2.32878 13.8708 2.25527 14.0145 2.2209L14.0129 2.2225ZM3.4001 11.8001H7.4001C7.7665 11.8001 8.0817 11.8001 8.3601 11.8657C8.79108 11.9687 9.18514 12.189 9.49861 12.5022C9.81208 12.8153 10.0327 13.2092 10.1361 13.6401C10.2001 13.9185 10.2001 14.2321 10.2001 14.6001V18.6001C10.2001 18.9665 10.2001 19.2817 10.1345 19.5601C10.0315 19.9911 9.81122 20.3851 9.49804 20.6986C9.18485 21.0121 8.79099 21.2327 8.3601 21.3361C8.0817 21.4001 7.7681 21.4001 7.4001 21.4001H3.4001C3.0337 21.4001 2.7185 21.4001 2.4401 21.3345C2.00912 21.2315 1.61506 21.0112 1.30159 20.698C0.988115 20.3848 0.76747 19.991 0.664098 19.5601C0.600098 19.2817 0.600098 18.9681 0.600098 18.6001V14.6001C0.600098 14.2337 0.600098 13.9185 0.665698 13.6401C0.768681 13.2091 0.988972 12.8151 1.30216 12.5016C1.61535 12.1881 2.00921 11.9675 2.4401 11.8641C2.7185 11.8001 3.0321 11.8001 3.4001 11.8001ZM3.4801 13.4001C2.9873 13.4001 2.8817 13.4049 2.8129 13.4225C2.66917 13.4569 2.53777 13.5304 2.43327 13.6349C2.32878 13.7394 2.25527 13.8708 2.2209 14.0145C2.2065 14.0801 2.2001 14.1857 2.2001 14.6801V18.5201C2.2001 19.0129 2.2049 19.1185 2.2225 19.1873C2.25687 19.331 2.33038 19.4624 2.43487 19.5669C2.53937 19.6714 2.67077 19.7449 2.8145 19.7793C2.8817 19.7953 2.9873 19.8001 3.4801 19.8001H7.3201C7.8129 19.8001 7.9185 19.7937 7.9873 19.7777C8.13103 19.7433 8.26242 19.6698 8.36692 19.5653C8.47142 19.4608 8.54493 19.3294 8.5793 19.1857C8.5953 19.1185 8.6001 19.0129 8.6001 18.5201V14.6801C8.6001 14.1873 8.5953 14.0817 8.5777 14.0129C8.54333 13.8692 8.46982 13.7378 8.36532 13.6333C8.26082 13.5288 8.12943 13.4553 7.9857 13.4209C7.9201 13.4065 7.8145 13.4001 7.3201 13.4001H3.4801ZM14.6801 11.8001H14.6001C14.2337 11.8001 13.9185 11.8001 13.6401 11.8657C13.2091 11.9687 12.8151 12.189 12.5016 12.5022C12.1881 12.8153 11.9675 13.2092 11.8641 13.6401C11.8001 13.9185 11.8001 14.2321 11.8001 14.6001V18.6001C11.8001 18.9665 11.8001 19.2817 11.8657 19.5601C11.9687 19.9911 12.189 20.3851 12.5022 20.6986C12.8154 21.0121 13.2092 21.2327 13.6401 21.3361C13.9185 21.4017 14.2337 21.4017 14.6001 21.4017H18.6001C18.9665 21.4017 19.2817 21.4017 19.5601 21.3361C19.9908 21.2329 20.3845 21.0124 20.6977 20.6993C21.0108 20.3861 21.2313 19.9924 21.3345 19.5617C21.4001 19.2833 21.4001 18.9681 21.4001 18.6017V14.6001C21.4001 14.2337 21.4001 13.9185 21.3345 13.6401C21.2315 13.2091 21.0112 12.8151 20.698 12.5016C20.3848 12.1881 19.991 11.9675 19.5601 11.8641C19.2817 11.8001 18.9681 11.8001 18.6001 11.8001H14.6801ZM14.0129 13.4225C14.0817 13.4065 14.1889 13.4001 14.6801 13.4001H18.5201C19.0129 13.4001 19.1185 13.4049 19.1873 13.4225C19.331 13.4569 19.4624 13.5304 19.5669 13.6349C19.6714 13.7394 19.7449 13.8708 19.7793 14.0145C19.7953 14.0817 19.8001 14.1873 19.8001 14.6801V18.5201C19.8001 19.0129 19.7937 19.1185 19.7777 19.1873C19.7433 19.331 19.6698 19.4624 19.5653 19.5669C19.4608 19.6714 19.3294 19.7449 19.1857 19.7793C19.1185 19.7953 19.0129 19.8001 18.5201 19.8001H14.6801C14.1873 19.8001 14.0817 19.7937 14.0129 19.7777C13.8692 19.7433 13.7378 19.6698 13.6333 19.5653C13.5288 19.4608 13.4553 19.3294 13.4209 19.1857C13.4065 19.1201 13.4001 19.0145 13.4001 18.5201V14.6801C13.4001 14.1873 13.4049 14.0817 13.4225 14.0129C13.4569 13.8692 13.5304 13.7378 13.6349 13.6333C13.7394 13.5288 13.8708 13.4553 14.0145 13.4209L14.0129 13.4225Z"/>
</mask>
<path fill-rule="evenodd" clip-rule="evenodd" d="M3.4801 0.600098H3.4001C3.0337 0.600098 2.7185 0.600098 2.4401 0.665698C2.00912 0.768681 1.61506 0.988972 1.30159 1.30216C0.988115 1.61535 0.76747 2.00921 0.664098 2.4401C0.600098 2.7185 0.600098 3.0321 0.600098 3.4001V7.4001C0.600098 7.7665 0.600098 8.0817 0.665698 8.3601C0.768681 8.79108 0.988972 9.18514 1.30216 9.49861C1.61535 9.81208 2.00921 10.0327 2.4401 10.1361C2.7185 10.2001 3.0321 10.2001 3.4001 10.2001H7.4001C7.7665 10.2001 8.0817 10.2001 8.3601 10.1345C8.79108 10.0315 9.18514 9.81122 9.49861 9.49803C9.81208 9.18485 10.0327 8.79099 10.1361 8.3601C10.2001 8.0817 10.2001 7.7681 10.2001 7.4001V3.4001C10.2001 3.0337 10.2001 2.7185 10.1345 2.4401C10.0315 2.00912 9.81122 1.61506 9.49804 1.30159C9.18485 0.988115 8.79099 0.76747 8.3601 0.664098C8.0817 0.600098 7.7681 0.600098 7.4001 0.600098H3.4801ZM2.8129 2.2225C2.8817 2.2065 2.9889 2.2001 3.4801 2.2001H7.3201C7.8129 2.2001 7.9185 2.2049 7.9873 2.2225C8.13103 2.25687 8.26242 2.33038 8.36692 2.43487C8.47142 2.53937 8.54493 2.67077 8.5793 2.8145C8.5953 2.8817 8.6001 2.9873 8.6001 3.4801V7.3201C8.6001 7.8129 8.5953 7.9185 8.5777 7.9873C8.54333 8.13103 8.46982 8.26242 8.36532 8.36692C8.26082 8.47142 8.12943 8.54493 7.9857 8.5793C7.9201 8.5937 7.8145 8.6001 7.3201 8.6001H3.4801C2.9873 8.6001 2.8817 8.5953 2.8129 8.5777C2.66917 8.54333 2.53777 8.46982 2.43327 8.36532C2.32878 8.26082 2.25527 8.12943 2.2209 7.9857C2.2065 7.9201 2.2001 7.8145 2.2001 7.3201V3.4801C2.2001 2.9873 2.2049 2.8817 2.2225 2.8129C2.25687 2.66917 2.33038 2.53777 2.43487 2.43327C2.53937 2.32878 2.67077 2.25527 2.8145 2.2209L2.8129 2.2225ZM14.6801 0.600098H14.6001C14.2337 0.600098 13.9185 0.600098 13.6401 0.665698C13.2091 0.768681 12.8151 0.988972 12.5016 1.30216C12.1881 1.61535 11.9675 2.00921 11.8641 2.4401C11.8001 2.7185 11.8001 3.0321 11.8001 3.4001V7.4001C11.8001 7.7665 11.8001 8.0817 11.8657 8.3601C11.9687 8.79108 12.189 9.18514 12.5022 9.49861C12.8154 9.81208 13.2092 10.0327 13.6401 10.1361C13.9185 10.2001 14.2321 10.2001 14.6001 10.2001H18.6001C18.9665 10.2001 19.2817 10.2001 19.5601 10.1345C19.9911 10.0315 20.3851 9.81122 20.6986 9.49803C21.0121 9.18485 21.2327 8.79099 21.3361 8.3601C21.4001 8.0817 21.4001 7.7681 21.4001 7.4001V3.4001C21.4001 3.0337 21.4001 2.7185 21.3345 2.4401C21.2315 2.00912 21.0112 1.61506 20.698 1.30159C20.3848 0.988115 19.991 0.76747 19.5601 0.664098C19.2817 0.600098 18.9681 0.600098 18.6001 0.600098H14.6801ZM14.0129 2.2225C14.0817 2.2065 14.1889 2.2001 14.6801 2.2001H18.5201C19.0129 2.2001 19.1185 2.2049 19.1873 2.2225C19.331 2.25687 19.4624 2.33038 19.5669 2.43487C19.6714 2.53937 19.7449 2.67077 19.7793 2.8145C19.7953 2.8817 19.8001 2.9873 19.8001 3.4801V7.3201C19.8001 7.8129 19.7937 7.9185 19.7777 7.9873C19.7433 8.13103 19.6698 8.26242 19.5653 8.36692C19.4608 8.47142 19.3294 8.54493 19.1857 8.5793C19.1185 8.5953 19.0129 8.6001 18.5201 8.6001H14.6801C14.1873 8.6001 14.0817 8.5953 14.0129 8.5777C13.8692 8.54333 13.7378 8.46982 13.6333 8.36532C13.5288 8.26082 13.4553 8.12943 13.4209 7.9857C13.4065 7.9201 13.4001 7.8145 13.4001 7.3201V3.4801C13.4001 2.9873 13.4049 2.8817 13.4225 2.8129C13.4569 2.66917 13.5304 2.53777 13.6349 2.43327C13.7394 2.32878 13.8708 2.25527 14.0145 2.2209L14.0129 2.2225ZM3.4001 11.8001H7.4001C7.7665 11.8001 8.0817 11.8001 8.3601 11.8657C8.79108 11.9687 9.18514 12.189 9.49861 12.5022C9.81208 12.8153 10.0327 13.2092 10.1361 13.6401C10.2001 13.9185 10.2001 14.2321 10.2001 14.6001V18.6001C10.2001 18.9665 10.2001 19.2817 10.1345 19.5601C10.0315 19.9911 9.81122 20.3851 9.49804 20.6986C9.18485 21.0121 8.79099 21.2327 8.3601 21.3361C8.0817 21.4001 7.7681 21.4001 7.4001 21.4001H3.4001C3.0337 21.4001 2.7185 21.4001 2.4401 21.3345C2.00912 21.2315 1.61506 21.0112 1.30159 20.698C0.988115 20.3848 0.76747 19.991 0.664098 19.5601C0.600098 19.2817 0.600098 18.9681 0.600098 18.6001V14.6001C0.600098 14.2337 0.600098 13.9185 0.665698 13.6401C0.768681 13.2091 0.988972 12.8151 1.30216 12.5016C1.61535 12.1881 2.00921 11.9675 2.4401 11.8641C2.7185 11.8001 3.0321 11.8001 3.4001 11.8001ZM3.4801 13.4001C2.9873 13.4001 2.8817 13.4049 2.8129 13.4225C2.66917 13.4569 2.53777 13.5304 2.43327 13.6349C2.32878 13.7394 2.25527 13.8708 2.2209 14.0145C2.2065 14.0801 2.2001 14.1857 2.2001 14.6801V18.5201C2.2001 19.0129 2.2049 19.1185 2.2225 19.1873C2.25687 19.331 2.33038 19.4624 2.43487 19.5669C2.53937 19.6714 2.67077 19.7449 2.8145 19.7793C2.8817 19.7953 2.9873 19.8001 3.4801 19.8001H7.3201C7.8129 19.8001 7.9185 19.7937 7.9873 19.7777C8.13103 19.7433 8.26242 19.6698 8.36692 19.5653C8.47142 19.4608 8.54493 19.3294 8.5793 19.1857C8.5953 19.1185 8.6001 19.0129 8.6001 18.5201V14.6801C8.6001 14.1873 8.5953 14.0817 8.5777 14.0129C8.54333 13.8692 8.46982 13.7378 8.36532 13.6333C8.26082 13.5288 8.12943 13.4553 7.9857 13.4209C7.9201 13.4065 7.8145 13.4001 7.3201 13.4001H3.4801ZM14.6801 11.8001H14.6001C14.2337 11.8001 13.9185 11.8001 13.6401 11.8657C13.2091 11.9687 12.8151 12.189 12.5016 12.5022C12.1881 12.8153 11.9675 13.2092 11.8641 13.6401C11.8001 13.9185 11.8001 14.2321 11.8001 14.6001V18.6001C11.8001 18.9665 11.8001 19.2817 11.8657 19.5601C11.9687 19.9911 12.189 20.3851 12.5022 20.6986C12.8154 21.0121 13.2092 21.2327 13.6401 21.3361C13.9185 21.4017 14.2337 21.4017 14.6001 21.4017H18.6001C18.9665 21.4017 19.2817 21.4017 19.5601 21.3361C19.9908 21.2329 20.3845 21.0124 20.6977 20.6993C21.0108 20.3861 21.2313 19.9924 21.3345 19.5617C21.4001 19.2833 21.4001 18.9681 21.4001 18.6017V14.6001C21.4001 14.2337 21.4001 13.9185 21.3345 13.6401C21.2315 13.2091 21.0112 12.8151 20.698 12.5016C20.3848 12.1881 19.991 11.9675 19.5601 11.8641C19.2817 11.8001 18.9681 11.8001 18.6001 11.8001H14.6801ZM14.0129 13.4225C14.0817 13.4065 14.1889 13.4001 14.6801 13.4001H18.5201C19.0129 13.4001 19.1185 13.4049 19.1873 13.4225C19.331 13.4569 19.4624 13.5304 19.5669 13.6349C19.6714 13.7394 19.7449 13.8708 19.7793 14.0145C19.7953 14.0817 19.8001 14.1873 19.8001 14.6801V18.5201C19.8001 19.0129 19.7937 19.1185 19.7777 19.1873C19.7433 19.331 19.6698 19.4624 19.5653 19.5669C19.4608 19.6714 19.3294 19.7449 19.1857 19.7793C19.1185 19.7953 19.0129 19.8001 18.5201 19.8001H14.6801C14.1873 19.8001 14.0817 19.7937 14.0129 19.7777C13.8692 19.7433 13.7378 19.6698 13.6333 19.5653C13.5288 19.4608 13.4553 19.3294 13.4209 19.1857C13.4065 19.1201 13.4001 19.0145 13.4001 18.5201V14.6801C13.4001 14.1873 13.4049 14.0817 13.4225 14.0129C13.4569 13.8692 13.5304 13.7378 13.6349 13.6333C13.7394 13.5288 13.8708 13.4553 14.0145 13.4209L14.0129 13.4225Z" fill="black" stroke="black" stroke-width="3.2" mask="url(#path-1-inside-1_965_3568)"/>
</svg>
