<svg width="32" height="32" viewBox="0 0 32 32" fill="none" xmlns="http://www.w3.org/2000/svg">
<path d="M16.0001 2.66675C8.64008 2.66675 2.66675 8.64008 2.66675 16.0001C2.66675 23.3601 8.64008 29.3334 16.0001 29.3334C23.3601 29.3334 29.3334 23.3601 29.3334 16.0001C29.3334 8.64008 23.3601 2.66675 16.0001 2.66675ZM22.1867 11.7334C21.9867 13.8401 21.1201 18.9601 20.6801 21.3201C20.4934 22.3201 20.1201 22.6534 19.7734 22.6934C19.0001 22.7601 18.4134 22.1867 17.6667 21.6934C16.4934 20.9201 15.8267 20.4401 14.6934 19.6934C13.3734 18.8267 14.2267 18.3467 14.9867 17.5734C15.1867 17.3734 18.6001 14.2667 18.6667 13.9867C18.676 13.9443 18.6748 13.9003 18.6632 13.8585C18.6515 13.8167 18.6299 13.7783 18.6001 13.7467C18.5201 13.6801 18.4134 13.7067 18.3201 13.7201C18.2001 13.7467 16.3334 14.9867 12.6934 17.4401C12.1601 17.8001 11.6801 17.9867 11.2534 17.9734C10.7734 17.9601 9.86675 17.7067 9.18675 17.4801C8.34675 17.2134 7.69341 17.0667 7.74675 16.6001C7.77341 16.3601 8.10675 16.1201 8.73341 15.8667C12.6267 14.1734 15.2134 13.0534 16.5067 12.5201C20.2134 10.9734 20.9734 10.7067 21.4801 10.7067C21.5867 10.7067 21.8401 10.7334 22.0001 10.8667C22.1334 10.9734 22.1734 11.1201 22.1867 11.2267C22.1734 11.3067 22.2001 11.5467 22.1867 11.7334Z" fill="#3D3D3D"/>
</svg>
