<svg width="164" height="36" viewBox="0 0 164 36" fill="none" xmlns="http://www.w3.org/2000/svg">
<path d="M6.344 25V9.062H0.104V6.8H15.158V9.062H8.918V25H6.344ZM25.9519 25.208C24.5652 25.208 23.2739 24.974 22.0779 24.506C20.8992 24.038 19.8765 23.388 19.0099 22.556C18.1432 21.7067 17.4672 20.7187 16.9819 19.592C16.4965 18.4653 16.2539 17.2347 16.2539 15.9C16.2539 14.5653 16.4965 13.3347 16.9819 12.208C17.4672 11.0813 18.1432 10.102 19.0099 9.27C19.8765 8.42067 20.8992 7.762 22.0779 7.294C23.2565 6.826 24.5479 6.592 25.9519 6.592C27.3385 6.592 28.6125 6.826 29.7739 7.294C30.9525 7.74467 31.9752 8.39467 32.8419 9.244C33.7259 10.076 34.4019 11.0553 34.8699 12.182C35.3552 13.3087 35.5979 14.548 35.5979 15.9C35.5979 17.252 35.3552 18.4913 34.8699 19.618C34.4019 20.7447 33.7259 21.7327 32.8419 22.582C31.9752 23.414 30.9525 24.064 29.7739 24.532C28.6125 24.9827 27.3385 25.208 25.9519 25.208ZM25.9519 22.894C26.9572 22.894 27.8845 22.7207 28.7339 22.374C29.6005 22.0273 30.3459 21.542 30.9699 20.918C31.6112 20.2767 32.1052 19.5313 32.4519 18.682C32.8159 17.8327 32.9979 16.9053 32.9979 15.9C32.9979 14.8947 32.8159 13.9673 32.4519 13.118C32.1052 12.2687 31.6112 11.532 30.9699 10.908C30.3459 10.2667 29.6005 9.77267 28.7339 9.426C27.8845 9.07933 26.9572 8.906 25.9519 8.906C24.9292 8.906 23.9845 9.07933 23.1179 9.426C22.2685 9.77267 21.5232 10.2667 20.8819 10.908C20.2405 11.532 19.7379 12.2687 19.3739 13.118C19.0272 13.9673 18.8539 14.8947 18.8539 15.9C18.8539 16.9053 19.0272 17.8327 19.3739 18.682C19.7379 19.5313 20.2405 20.2767 20.8819 20.918C21.5232 21.542 22.2685 22.0273 23.1179 22.374C23.9845 22.7207 24.9292 22.894 25.9519 22.894ZM43.1992 25L37.1152 6.8H39.7932L45.3832 23.596H44.0312L49.8292 6.8H52.2212L57.8892 23.596H56.5892L62.2572 6.8H64.7272L58.6432 25H55.9132L50.6092 9.426H51.3112L45.9812 25H43.1992ZM67.9077 25V6.8H70.0397L82.0777 21.75H80.9597V6.8H83.5597V25H81.4277L69.3897 10.05H70.5077V25H67.9077ZM94.3113 25.208C92.9247 25.208 91.5987 25 90.3333 24.584C89.068 24.1507 88.0713 23.596 87.3433 22.92L88.3053 20.892C88.9987 21.4987 89.8827 22.0013 90.9573 22.4C92.032 22.7987 93.15 22.998 94.3113 22.998C95.3687 22.998 96.2267 22.8767 96.8853 22.634C97.544 22.3913 98.0293 22.062 98.3413 21.646C98.6533 21.2127 98.8093 20.7273 98.8093 20.19C98.8093 19.566 98.6013 19.0633 98.1853 18.682C97.7867 18.3007 97.258 17.9973 96.5993 17.772C95.958 17.5293 95.2473 17.3213 94.4673 17.148C93.6873 16.9747 92.8987 16.7753 92.1013 16.55C91.3213 16.3073 90.602 16.004 89.9433 15.64C89.302 15.276 88.782 14.7907 88.3833 14.184C87.9847 13.56 87.7853 12.7627 87.7853 11.792C87.7853 10.856 88.028 9.998 88.5133 9.218C89.016 8.42067 89.7787 7.788 90.8013 7.32C91.8413 6.83467 93.1587 6.592 94.7533 6.592C95.8107 6.592 96.8593 6.73067 97.8993 7.008C98.9393 7.28533 99.8407 7.684 100.603 8.204L99.7453 10.284C98.9653 9.764 98.142 9.39133 97.2753 9.166C96.4087 8.92333 95.568 8.802 94.7533 8.802C93.7307 8.802 92.89 8.932 92.2313 9.192C91.5727 9.452 91.0873 9.79867 90.7753 10.232C90.4807 10.6653 90.3333 11.1507 90.3333 11.688C90.3333 12.3293 90.5327 12.8407 90.9313 13.222C91.3473 13.6033 91.876 13.9067 92.5173 14.132C93.176 14.3573 93.8953 14.5653 94.6753 14.756C95.4553 14.9293 96.2353 15.1287 97.0153 15.354C97.8127 15.5793 98.532 15.874 99.1733 16.238C99.832 16.602 100.361 17.0873 100.759 17.694C101.158 18.3007 101.357 19.0807 101.357 20.034C101.357 20.9527 101.106 21.8107 100.603 22.608C100.101 23.388 99.3207 24.0207 98.2633 24.506C97.2233 24.974 95.906 25.208 94.3113 25.208ZM107.522 14.652H116.882V16.862H107.522V14.652ZM107.756 22.738H118.364V25H105.156V6.8H118V9.062H107.756V22.738ZM122.574 25V6.8H124.706L136.744 21.75H135.626V6.8H138.226V25H136.094L124.056 10.05H125.174V25H122.574ZM143.673 25V6.8H151.343C153.285 6.8 154.992 7.18133 156.465 7.944C157.956 8.70667 159.109 9.77267 159.923 11.142C160.755 12.5113 161.171 14.0973 161.171 15.9C161.171 17.7027 160.755 19.2887 159.923 20.658C159.109 22.0273 157.956 23.0933 156.465 23.856C154.992 24.6187 153.285 25 151.343 25H143.673ZM146.273 22.738H151.187C152.695 22.738 153.995 22.452 155.087 21.88C156.197 21.308 157.055 20.5107 157.661 19.488C158.268 18.448 158.571 17.252 158.571 15.9C158.571 14.5307 158.268 13.3347 157.661 12.312C157.055 11.2893 156.197 10.492 155.087 9.92C153.995 9.348 152.695 9.062 151.187 9.062H146.273V22.738Z" fill="black"/>
</svg>
