<svg width="16" height="20" viewBox="0 0 16 20" fill="none" xmlns="http://www.w3.org/2000/svg">
<path d="M8 12C8.55 12 9.021 11.804 9.413 11.412C9.80433 11.0207 10 10.55 10 10C10 9.45 9.80433 8.979 9.413 8.587C9.021 8.19567 8.55 8 8 8C7.45 8 6.97933 8.19567 6.588 8.587C6.196 8.979 6 9.45 6 10C6 10.55 6.196 11.0207 6.588 11.412C6.97933 11.804 7.45 12 8 12ZM4 16H12V15.425C12 15.025 11.8917 14.6583 11.675 14.325C11.4583 13.9917 11.1583 13.7417 10.775 13.575C10.3417 13.3917 9.896 13.25 9.438 13.15C8.97933 13.05 8.5 13 8 13C7.5 13 7.02067 13.05 6.562 13.15C6.104 13.25 5.65833 13.3917 5.225 13.575C4.84167 13.7417 4.54167 13.9917 4.325 14.325C4.10833 14.6583 4 15.025 4 15.425V16ZM14 20H2C1.45 20 0.979333 19.8043 0.588 19.413C0.196 19.021 0 18.55 0 18V2C0 1.45 0.196 0.979 0.588 0.587C0.979333 0.195667 1.45 0 2 0H10L16 6V18C16 18.55 15.8043 19.021 15.413 19.413C15.021 19.8043 14.55 20 14 20ZM14 18V6.85L9.15 2H2V18H14Z" fill="black"/>
</svg>
